<svg xmlns="http://www.w3.org/2000/svg" xmlns:xlink="http://www.w3.org/1999/xlink" width="35" height="35" viewBox="0 0 35 35"><defs><linearGradient id="a" x1="1" y1="0.065" x2="-0.127" y2="1" gradientUnits="objectBoundingBox"><stop offset="0" stop-color="#03daf2"/><stop offset="1" stop-color="#13e780"/></linearGradient></defs><g transform="translate(-435 -585)"><circle cx="17.5" cy="17.5" r="17.5" transform="translate(435 585)" fill="url(#a)"/><path d="M1.558-16.1H5.814L5.1-2.642H2.248ZM3.686,4.231a2.288,2.288,0,0,1-1.668-.647,2.145,2.145,0,0,1-.661-1.6A2.1,2.1,0,0,1,2.018.406,2.316,2.316,0,0,1,3.686-.227,2.23,2.23,0,0,1,5.311.406a2.121,2.121,0,0,1,.647,1.582,2.169,2.169,0,0,1-.647,1.6A2.2,2.2,0,0,1,3.686,4.231Z" transform="translate(448.642 608.1)" fill="#fff"/></g></svg>