<svg xmlns="http://www.w3.org/2000/svg" width="30.002" height="30.001" viewBox="0 0 30.002 30.001"><path d="M-13724-1697a14.9,14.9,0,0,1-10.605-4.394A14.907,14.907,0,0,1-13739-1712a14.9,14.9,0,0,1,4.394-10.605A14.9,14.9,0,0,1-13724-1727a14.909,14.909,0,0,1,10.609,4.394A14.9,14.9,0,0,1-13709-1712a14.906,14.906,0,0,1-4.394,10.608A14.908,14.908,0,0,1-13724-1697Zm-7-18.25v9.748a1.5,1.5,0,0,0,1.5,1.5h9v-1.5h-9v-9.748Zm4.5-3.751a1.5,1.5,0,0,0-1.5,1.5v9a1.5,1.5,0,0,0,1.5,1.5h9a1.5,1.5,0,0,0,1.5-1.5v-9a1.5,1.5,0,0,0-1.5-1.5Zm3.752,9h0l-3.375-3.375,1.059-1.055,2.317,2.31,4.192-4.186,1.059,1.059-5.25,5.247Z" transform="translate(13739.001 1727)" fill="#fff"/></svg>